<svg xmlns="http://www.w3.org/2000/svg" viewBox="0 0 200 200" width="200" height="200" role="img" aria-label="EnerTchad">
  <circle cx="100" cy="100" r="80" fill="none" stroke="#C49A35" stroke-width="7"/>
  <path d="M100 42 C108 58,128 70,128 85 C128 100,115 108,100 108 C85 108,72 100,72 85 C72 70,92 58,100 42Z" fill="#D4A843"/>
  <path d="M42 100 C58 92,70 72,85 72 C100 72,108 85,108 100 C108 115,100 128,85 128 C70 128,58 108,42 100Z" fill="#2E6BBF"/>
  <path d="M158 100 C142 108,130 128,115 128 C100 128,92 115,92 100 C92 85,100 72,115 72 C130 72,142 92,158 100Z" fill="#1B8C3D"/>
  <path d="M100 158 C92 142,72 130,72 115 C72 100,85 92,100 92 C115 92,128 100,128 115 C128 130,108 142,100 158Z" fill="#E0D0A0"/>
  <circle cx="100" cy="100" r="9" fill="#0A1322"/>
</svg>
